<?xml version="1.0" encoding="UTF-8" standalone="no"?>
<!DOCTYPE svg PUBLIC "-//W3C//DTD SVG 1.1//EN"
 "http://www.w3.org/Graphics/SVG/1.1/DTD/svg11.dtd">
<!-- Generated by graphviz version 8.1.0 (20230707.0739)
 -->
<!-- Pages: 1 -->
<svg width="825pt" height="116pt"
 viewBox="0.00 0.00 825.06 116.00" xmlns="http://www.w3.org/2000/svg" xmlns:xlink="http://www.w3.org/1999/xlink">
<g id="graph0" class="graph" transform="scale(1 1) rotate(0) translate(4 112)">
<polygon fill="white" stroke="none" points="-4,4 -4,-112 821.06,-112 821.06,4 -4,4"/>
<!-- RF -->
<g id="node1" class="node">
<title>RF</title>
<ellipse fill="none" stroke="black" cx="27" cy="-90" rx="27" ry="18"/>
<text text-anchor="middle" x="27" y="-84.58" font-family="Times New Roman,serif" font-size="14.00">RF</text>
</g>
<!-- rf -->
<g id="node2" class="node">
<title>rf</title>
<ellipse fill="none" stroke="black" cx="78" cy="-18" rx="27" ry="18"/>
<text text-anchor="middle" x="78" y="-12.57" font-family="Times New Roman,serif" font-size="14.00">rf</text>
</g>
<!-- RF&#45;&gt;rf -->
<g id="edge1" class="edge">
<title>RF&#45;&gt;rf</title>
<path fill="none" stroke="black" d="M38.32,-73.46C44.79,-64.58 53.05,-53.25 60.35,-43.22"/>
<polygon fill="black" stroke="black" points="63.65,-45.64 66.71,-35.49 58,-41.51 63.65,-45.64"/>
</g>
<!-- 10 &#45; 100, q5 -->
<g id="node3" class="node">
<title>10 &#45; 100, q5</title>
<ellipse fill="none" stroke="black" cx="128" cy="-90" rx="55.55" ry="18"/>
<text text-anchor="middle" x="128" y="-84.58" font-family="Times New Roman,serif" font-size="14.00">10 &#45; 100, q5</text>
</g>
<!-- 10 &#45; 100, q5&#45;&gt;rf -->
<g id="edge2" class="edge">
<title>10 &#45; 100, q5&#45;&gt;rf</title>
<path fill="none" stroke="black" d="M115.9,-72.05C109.83,-63.56 102.36,-53.11 95.67,-43.73"/>
<polygon fill="black" stroke="black" points="97.97,-41.93 89.31,-35.83 92.27,-46 97.97,-41.93"/>
</g>
<!-- kNN -->
<g id="node4" class="node">
<title>kNN</title>
<ellipse fill="none" stroke="black" cx="230" cy="-90" rx="28.11" ry="18"/>
<text text-anchor="middle" x="230" y="-84.58" font-family="Times New Roman,serif" font-size="14.00">kNN</text>
</g>
<!-- knn -->
<g id="node5" class="node">
<title>knn</title>
<ellipse fill="none" stroke="black" cx="266" cy="-18" rx="27" ry="18"/>
<text text-anchor="middle" x="266" y="-12.57" font-family="Times New Roman,serif" font-size="14.00">knn</text>
</g>
<!-- kNN&#45;&gt;knn -->
<g id="edge3" class="edge">
<title>kNN&#45;&gt;knn</title>
<path fill="none" stroke="black" d="M238.53,-72.41C242.7,-64.3 247.82,-54.35 252.5,-45.25"/>
<polygon fill="black" stroke="black" points="256.07,-46.96 257.53,-36.47 249.84,-43.76 256.07,-46.96"/>
</g>
<!-- 1&#45;25 -->
<g id="node6" class="node">
<title>1&#45;25</title>
<ellipse fill="none" stroke="black" cx="303" cy="-90" rx="27.11" ry="18"/>
<text text-anchor="middle" x="303" y="-84.58" font-family="Times New Roman,serif" font-size="14.00">1&#45;25</text>
</g>
<!-- 1&#45;25&#45;&gt;knn -->
<g id="edge4" class="edge">
<title>1&#45;25&#45;&gt;knn</title>
<path fill="none" stroke="black" d="M294.42,-72.76C290.03,-64.46 284.58,-54.15 279.63,-44.79"/>
<polygon fill="black" stroke="black" points="282.3,-43.35 274.54,-36.15 276.11,-46.62 282.3,-43.35"/>
</g>
<!-- LDA -->
<g id="node7" class="node">
<title>LDA</title>
<ellipse fill="none" stroke="black" cx="377" cy="-90" rx="29.11" ry="18"/>
<text text-anchor="middle" x="377" y="-84.58" font-family="Times New Roman,serif" font-size="14.00">LDA</text>
</g>
<!-- lda -->
<g id="node8" class="node">
<title>lda</title>
<ellipse fill="none" stroke="black" cx="421" cy="-18" rx="27" ry="18"/>
<text text-anchor="middle" x="421" y="-12.57" font-family="Times New Roman,serif" font-size="14.00">lda</text>
</g>
<!-- LDA&#45;&gt;lda -->
<g id="edge5" class="edge">
<title>LDA&#45;&gt;lda</title>
<path fill="none" stroke="black" d="M387.21,-72.76C392.54,-64.28 399.18,-53.71 405.16,-44.2"/>
<polygon fill="black" stroke="black" points="408.49,-46.48 410.85,-36.15 402.57,-42.75 408.49,-46.48"/>
</g>
<!-- 0.0 &#45; 1.0 -->
<g id="node9" class="node">
<title>0.0 &#45; 1.0</title>
<ellipse fill="none" stroke="black" cx="466" cy="-90" rx="41.58" ry="18"/>
<text text-anchor="middle" x="466" y="-84.58" font-family="Times New Roman,serif" font-size="14.00">0.0 &#45; 1.0</text>
</g>
<!-- 0.0 &#45; 1.0&#45;&gt;lda -->
<g id="edge6" class="edge">
<title>0.0 &#45; 1.0&#45;&gt;lda</title>
<path fill="none" stroke="black" d="M455.34,-72.41C449.88,-63.92 443.12,-53.41 437.05,-43.96"/>
<polygon fill="black" stroke="black" points="439.63,-42.51 431.28,-35.99 433.74,-46.29 439.63,-42.51"/>
</g>
<!-- QDA -->
<g id="node10" class="node">
<title>QDA</title>
<ellipse fill="none" stroke="black" cx="556" cy="-90" rx="30.61" ry="18"/>
<text text-anchor="middle" x="556" y="-84.58" font-family="Times New Roman,serif" font-size="14.00">QDA</text>
</g>
<!-- qda -->
<g id="node11" class="node">
<title>qda</title>
<ellipse fill="none" stroke="black" cx="556" cy="-18" rx="27" ry="18"/>
<text text-anchor="middle" x="556" y="-12.57" font-family="Times New Roman,serif" font-size="14.00">qda</text>
</g>
<!-- QDA&#45;&gt;qda -->
<g id="edge7" class="edge">
<title>QDA&#45;&gt;qda</title>
<path fill="none" stroke="black" d="M556,-71.7C556,-64.24 556,-55.32 556,-46.97"/>
<polygon fill="black" stroke="black" points="559.5,-47.1 556,-37.1 552.5,-47.1 559.5,-47.1"/>
</g>
<!-- gaussNB -->
<g id="node12" class="node">
<title>gaussNB</title>
<ellipse fill="none" stroke="black" cx="649" cy="-90" rx="44.08" ry="18"/>
<text text-anchor="middle" x="649" y="-84.58" font-family="Times New Roman,serif" font-size="14.00">gaussNB</text>
</g>
<!-- gnb -->
<g id="node13" class="node">
<title>gnb</title>
<ellipse fill="none" stroke="black" cx="706" cy="-18" rx="27" ry="18"/>
<text text-anchor="middle" x="706" y="-12.57" font-family="Times New Roman,serif" font-size="14.00">gnb</text>
</g>
<!-- gaussNB&#45;&gt;gnb -->
<g id="edge8" class="edge">
<title>gaussNB&#45;&gt;gnb</title>
<path fill="none" stroke="black" d="M662.51,-72.41C669.77,-63.5 678.84,-52.35 686.82,-42.56"/>
<polygon fill="black" stroke="black" points="690.15,-45 693.75,-35.04 684.73,-40.58 690.15,-45"/>
</g>
<!-- log 1e&#45;9 &#45; 1 -->
<g id="node14" class="node">
<title>log 1e&#45;9 &#45; 1</title>
<ellipse fill="none" stroke="black" cx="764" cy="-90" rx="53.06" ry="18"/>
<text text-anchor="middle" x="764" y="-84.58" font-family="Times New Roman,serif" font-size="14.00">log 1e&#45;9 &#45; 1</text>
</g>
<!-- log 1e&#45;9 &#45; 1&#45;&gt;gnb -->
<g id="edge9" class="edge">
<title>log 1e&#45;9 &#45; 1&#45;&gt;gnb</title>
<path fill="none" stroke="black" d="M750.25,-72.41C742.79,-63.41 733.45,-52.13 725.27,-42.26"/>
<polygon fill="black" stroke="black" points="727.54,-40.51 718.46,-35.04 722.15,-44.97 727.54,-40.51"/>
</g>
</g>
</svg>
